<mxfile host="app.diagrams.net" modified="2023-11-01T15:48:37.786Z" agent="Mozilla/5.0 (Windows NT 10.0; Win64; x64) AppleWebKit/537.36 (KHTML, like Gecko) Chrome/118.0.0.0 Safari/537.36" etag="Dr31NaH5tggeCQ3AZb_0" version="22.0.8" type="device">
  <diagram name="Page-1" id="c37626ed-c26b-45fb-9056-f9ebc6bb27b6">
    <mxGraphModel dx="1953" dy="1878" grid="1" gridSize="10" guides="1" tooltips="1" connect="1" arrows="1" fold="1" page="1" pageScale="1" pageWidth="1100" pageHeight="850" background="none" math="0" shadow="0">
      <root>
        <mxCell id="0" />
        <mxCell id="1" parent="0" />
        <mxCell id="BFUSjsGuw__ukXtsEylR-2" value="Головный офис 192.168.0.0/21" style="swimlane;whiteSpace=wrap;html=1;" parent="1" vertex="1">
          <mxGeometry y="-110" width="910" height="600" as="geometry">
            <mxRectangle x="340" y="480" width="170" height="30" as="alternateBounds" />
          </mxGeometry>
        </mxCell>
        <mxCell id="BFUSjsGuw__ukXtsEylR-12" value="Gateway&lt;br&gt;192.168.0.1" style="shape=mxgraph.cisco.hubs_and_gateways.generic_gateway;sketch=0;html=1;pointerEvents=1;dashed=0;fillColor=#036897;strokeColor=#ffffff;strokeWidth=2;verticalLabelPosition=bottom;verticalAlign=top;align=center;outlineConnect=0;movable=1;resizable=1;rotatable=1;deletable=1;editable=1;locked=0;connectable=1;points=[[0,0.5,0,0,0],[0.05,0.28,0,0,0],[0.05,0.73,0,0,0],[0.12,0.06,0,0,0],[0.12,0.94,0,0,0],[0.5,0,0,0,0],[0.5,1,0,0,0],[0.88,0.06,0,0,0],[0.88,0.94,0,0,0],[1,0.5,0,0,0]];" parent="BFUSjsGuw__ukXtsEylR-2" vertex="1">
          <mxGeometry x="380" y="499" width="53" height="61" as="geometry" />
        </mxCell>
        <mxCell id="BFUSjsGuw__ukXtsEylR-27" value="DB (Oracle, Postgres)&lt;br&gt;192.168.0.10" style="shape=mxgraph.cisco.servers.standard_host;sketch=0;html=1;pointerEvents=1;dashed=0;fillColor=#036897;strokeColor=#ffffff;strokeWidth=2;verticalLabelPosition=bottom;verticalAlign=top;align=center;outlineConnect=0;" parent="BFUSjsGuw__ukXtsEylR-2" vertex="1">
          <mxGeometry x="50" y="240" width="43" height="62" as="geometry" />
        </mxCell>
        <mxCell id="PqYLDP6LCptQQngkSeQw-4" style="edgeStyle=orthogonalEdgeStyle;rounded=0;orthogonalLoop=1;jettySize=auto;html=1;startArrow=classic;startFill=1;" parent="BFUSjsGuw__ukXtsEylR-2" source="wHRlTUKIw1xnclX0nAlL-4" target="PqYLDP6LCptQQngkSeQw-2" edge="1">
          <mxGeometry relative="1" as="geometry" />
        </mxCell>
        <mxCell id="wHRlTUKIw1xnclX0nAlL-4" value="Финансовый отдел" style="swimlane;whiteSpace=wrap;html=1;movable=1;resizable=1;rotatable=1;deletable=1;editable=1;locked=0;connectable=1;fillColor=#ffe6cc;strokeColor=#d79b00;" parent="BFUSjsGuw__ukXtsEylR-2" vertex="1">
          <mxGeometry x="270" y="252" width="260" height="180" as="geometry" />
        </mxCell>
        <mxCell id="wHRlTUKIw1xnclX0nAlL-9" value="Директор&lt;br&gt;192.168.0.20" style="shape=mxgraph.cisco.computers_and_peripherals.pc;sketch=0;html=1;pointerEvents=1;dashed=0;fillColor=#036897;strokeColor=#ffffff;strokeWidth=2;verticalLabelPosition=bottom;verticalAlign=top;align=center;outlineConnect=0;" parent="wHRlTUKIw1xnclX0nAlL-4" vertex="1">
          <mxGeometry x="180" y="34" width="40" height="40" as="geometry" />
        </mxCell>
        <mxCell id="wHRlTUKIw1xnclX0nAlL-10" value="Бухгалтер&lt;br&gt;192.168.0.21" style="shape=mxgraph.cisco.computers_and_peripherals.pc;sketch=0;html=1;pointerEvents=1;dashed=0;fillColor=#036897;strokeColor=#ffffff;strokeWidth=2;verticalLabelPosition=bottom;verticalAlign=top;align=center;outlineConnect=0;" parent="wHRlTUKIw1xnclX0nAlL-4" vertex="1">
          <mxGeometry x="90" y="34" width="40" height="40" as="geometry" />
        </mxCell>
        <mxCell id="wHRlTUKIw1xnclX0nAlL-17" value="Аналитик&lt;br&gt;192.168.0.22" style="shape=mxgraph.cisco.computers_and_peripherals.pc;sketch=0;html=1;pointerEvents=1;dashed=0;fillColor=#036897;strokeColor=#ffffff;strokeWidth=2;verticalLabelPosition=bottom;verticalAlign=top;align=center;outlineConnect=0;" parent="wHRlTUKIw1xnclX0nAlL-4" vertex="1">
          <mxGeometry x="20" y="92" width="40" height="40" as="geometry" />
        </mxCell>
        <mxCell id="wHRlTUKIw1xnclX0nAlL-13" value="ERP Server&lt;br&gt;192.168.0.11" style="shape=mxgraph.cisco.servers.fileserver;sketch=0;html=1;pointerEvents=1;dashed=0;fillColor=#036897;strokeColor=#ffffff;strokeWidth=2;verticalLabelPosition=bottom;verticalAlign=top;align=center;outlineConnect=0;" parent="BFUSjsGuw__ukXtsEylR-2" vertex="1">
          <mxGeometry x="50" y="350" width="43" height="62" as="geometry" />
        </mxCell>
        <mxCell id="PqYLDP6LCptQQngkSeQw-7" style="edgeStyle=orthogonalEdgeStyle;rounded=0;orthogonalLoop=1;jettySize=auto;html=1;entryX=1;entryY=0;entryDx=0;entryDy=0;entryPerimeter=0;exitX=0.5;exitY=1;exitDx=0;exitDy=0;startArrow=classic;startFill=1;" parent="BFUSjsGuw__ukXtsEylR-2" source="wHRlTUKIw1xnclX0nAlL-39" target="PqYLDP6LCptQQngkSeQw-2" edge="1">
          <mxGeometry relative="1" as="geometry">
            <mxPoint x="570" y="470" as="targetPoint" />
          </mxGeometry>
        </mxCell>
        <mxCell id="wHRlTUKIw1xnclX0nAlL-39" value="Отдел маркетинга" style="swimlane;whiteSpace=wrap;html=1;fillColor=#f8cecc;strokeColor=#b85450;" parent="BFUSjsGuw__ukXtsEylR-2" vertex="1">
          <mxGeometry x="540" y="252" width="260" height="180" as="geometry" />
        </mxCell>
        <mxCell id="gI3BMYjENLLatV8nJ0et-4" value="СММ&lt;br&gt;192.168.0.33" style="shape=mxgraph.cisco.computers_and_peripherals.pc;sketch=0;html=1;pointerEvents=1;dashed=0;fillColor=#036897;strokeColor=#ffffff;strokeWidth=2;verticalLabelPosition=bottom;verticalAlign=top;align=center;outlineConnect=0;" parent="wHRlTUKIw1xnclX0nAlL-39" vertex="1">
          <mxGeometry x="20" y="40" width="40" height="40" as="geometry" />
        </mxCell>
        <mxCell id="gI3BMYjENLLatV8nJ0et-5" value="Директор&lt;br&gt;192.168.0.30" style="shape=mxgraph.cisco.computers_and_peripherals.pc;sketch=0;html=1;pointerEvents=1;dashed=0;fillColor=#036897;strokeColor=#ffffff;strokeWidth=2;verticalLabelPosition=bottom;verticalAlign=top;align=center;outlineConnect=0;" parent="wHRlTUKIw1xnclX0nAlL-39" vertex="1">
          <mxGeometry x="200" y="40" width="40" height="40" as="geometry" />
        </mxCell>
        <mxCell id="wHRlTUKIw1xnclX0nAlL-43" value="Mesh Wi-Fi&lt;br&gt;192.168.0.3" style="shape=mxgraph.cisco.routers.wireless_router;html=1;pointerEvents=1;dashed=0;fillColor=#036897;strokeColor=#ffffff;strokeWidth=2;verticalLabelPosition=bottom;verticalAlign=top;align=center;outlineConnect=0;" parent="BFUSjsGuw__ukXtsEylR-2" vertex="1">
          <mxGeometry x="610" y="488" width="48" height="47" as="geometry" />
        </mxCell>
        <mxCell id="gI3BMYjENLLatV8nJ0et-10" value="Отдел кадров" style="swimlane;whiteSpace=wrap;html=1;fillColor=#e1d5e7;strokeColor=#9673a6;" parent="BFUSjsGuw__ukXtsEylR-2" vertex="1">
          <mxGeometry x="283" y="30" width="260" height="190" as="geometry" />
        </mxCell>
        <mxCell id="gI3BMYjENLLatV8nJ0et-23" value="Менеджер по кадрам&lt;br&gt;192.168.0.50" style="shape=mxgraph.cisco.computers_and_peripherals.pc;sketch=0;html=1;pointerEvents=1;dashed=0;fillColor=#036897;strokeColor=#ffffff;strokeWidth=2;verticalLabelPosition=bottom;verticalAlign=top;align=center;outlineConnect=0;" parent="gI3BMYjENLLatV8nJ0et-10" vertex="1">
          <mxGeometry x="47" y="30" width="40" height="40" as="geometry" />
        </mxCell>
        <mxCell id="gI3BMYjENLLatV8nJ0et-24" value="Спец. по обучению&lt;br&gt;192.168.0.51" style="shape=mxgraph.cisco.computers_and_peripherals.pc;sketch=0;html=1;pointerEvents=1;dashed=0;fillColor=#036897;strokeColor=#ffffff;strokeWidth=2;verticalLabelPosition=bottom;verticalAlign=top;align=center;outlineConnect=0;" parent="gI3BMYjENLLatV8nJ0et-10" vertex="1">
          <mxGeometry x="177" y="80" width="40" height="40" as="geometry" />
        </mxCell>
        <mxCell id="gI3BMYjENLLatV8nJ0et-11" value="ИТ отдел" style="swimlane;whiteSpace=wrap;html=1;fillColor=#dae8fc;strokeColor=#6c8ebf;" parent="BFUSjsGuw__ukXtsEylR-2" vertex="1">
          <mxGeometry x="550" y="30" width="350" height="190" as="geometry" />
        </mxCell>
        <mxCell id="gI3BMYjENLLatV8nJ0et-15" value="Руководитель&lt;br&gt;192.168.0.40" style="shape=mxgraph.cisco.computers_and_peripherals.pc;sketch=0;html=1;pointerEvents=1;dashed=0;fillColor=#036897;strokeColor=#ffffff;strokeWidth=2;verticalLabelPosition=bottom;verticalAlign=top;align=center;outlineConnect=0;" parent="gI3BMYjENLLatV8nJ0et-11" vertex="1">
          <mxGeometry x="20" y="30" width="40" height="40" as="geometry" />
        </mxCell>
        <mxCell id="gI3BMYjENLLatV8nJ0et-16" value="Backend-разраб.&lt;br&gt;192.168.0.41" style="shape=mxgraph.cisco.computers_and_peripherals.pc;sketch=0;html=1;pointerEvents=1;dashed=0;fillColor=#036897;strokeColor=#ffffff;strokeWidth=2;verticalLabelPosition=bottom;verticalAlign=top;align=center;outlineConnect=0;" parent="gI3BMYjENLLatV8nJ0et-11" vertex="1">
          <mxGeometry x="30" y="110" width="40" height="40" as="geometry" />
        </mxCell>
        <mxCell id="gI3BMYjENLLatV8nJ0et-29" value="Frontend-разраб.&lt;br&gt;192.168.0.42" style="shape=mxgraph.cisco.computers_and_peripherals.pc;sketch=0;html=1;pointerEvents=1;dashed=0;fillColor=#036897;strokeColor=#ffffff;strokeWidth=2;verticalLabelPosition=bottom;verticalAlign=top;align=center;outlineConnect=0;" parent="gI3BMYjENLLatV8nJ0et-11" vertex="1">
          <mxGeometry x="130" y="110" width="40" height="40" as="geometry" />
        </mxCell>
        <mxCell id="gI3BMYjENLLatV8nJ0et-45" value="Сис. админ.&lt;br&gt;192.168.0.43" style="shape=mxgraph.cisco.computers_and_peripherals.pc;sketch=0;html=1;pointerEvents=1;dashed=0;fillColor=#036897;strokeColor=#ffffff;strokeWidth=2;verticalLabelPosition=bottom;verticalAlign=top;align=center;outlineConnect=0;" parent="gI3BMYjENLLatV8nJ0et-11" vertex="1">
          <mxGeometry x="280" y="30" width="40" height="40" as="geometry" />
        </mxCell>
        <mxCell id="gI3BMYjENLLatV8nJ0et-14" value="Отдел логистики" style="swimlane;whiteSpace=wrap;html=1;fillColor=#d5e8d4;strokeColor=#82b366;" parent="BFUSjsGuw__ukXtsEylR-2" vertex="1">
          <mxGeometry x="10" y="30" width="270" height="190" as="geometry" />
        </mxCell>
        <mxCell id="nyUpfFxctSfSs6v7zyH1-12" value="&lt;p style=&quot;line-height: 100%;&quot;&gt;&lt;font style=&quot;font-size: 12px;&quot;&gt;Руководитель&lt;br&gt;192.168.7.10&lt;/font&gt;&lt;/p&gt;" style="shape=mxgraph.cisco.computers_and_peripherals.pc;sketch=0;html=1;pointerEvents=1;dashed=0;fillColor=#036897;strokeColor=#ffffff;strokeWidth=2;verticalLabelPosition=bottom;verticalAlign=top;align=center;outlineConnect=0;spacing=-17;" vertex="1" parent="gI3BMYjENLLatV8nJ0et-14">
          <mxGeometry x="20" y="30" width="40" height="40" as="geometry" />
        </mxCell>
        <mxCell id="nyUpfFxctSfSs6v7zyH1-13" value="&lt;p style=&quot;line-height: 100%;&quot;&gt;&lt;font style=&quot;font-size: 12px;&quot;&gt;Операционный логист&lt;br&gt;192.168.7.12&lt;/font&gt;&lt;/p&gt;" style="shape=mxgraph.cisco.computers_and_peripherals.pc;sketch=0;html=1;pointerEvents=1;dashed=0;fillColor=#036897;strokeColor=#ffffff;strokeWidth=2;verticalLabelPosition=bottom;verticalAlign=top;align=center;outlineConnect=0;spacing=-17;" vertex="1" parent="gI3BMYjENLLatV8nJ0et-14">
          <mxGeometry x="180" y="30" width="40" height="40" as="geometry" />
        </mxCell>
        <mxCell id="gI3BMYjENLLatV8nJ0et-50" value="DHCP/DNS/ActiveDirectory&lt;br&gt;192.168.0.4" style="shape=mxgraph.cisco.servers.fileserver;sketch=0;html=1;pointerEvents=1;dashed=0;fillColor=#036897;strokeColor=#ffffff;strokeWidth=2;verticalLabelPosition=bottom;verticalAlign=top;align=center;outlineConnect=0;" parent="BFUSjsGuw__ukXtsEylR-2" vertex="1">
          <mxGeometry x="60" y="453.5" width="43" height="62" as="geometry" />
        </mxCell>
        <mxCell id="gI3BMYjENLLatV8nJ0et-54" style="edgeStyle=orthogonalEdgeStyle;rounded=0;orthogonalLoop=1;jettySize=auto;html=1;startArrow=classic;startFill=1;entryX=0.12;entryY=0.06;entryDx=0;entryDy=0;entryPerimeter=0;" parent="BFUSjsGuw__ukXtsEylR-2" source="gI3BMYjENLLatV8nJ0et-51" target="BFUSjsGuw__ukXtsEylR-12" edge="1">
          <mxGeometry relative="1" as="geometry" />
        </mxCell>
        <mxCell id="gI3BMYjENLLatV8nJ0et-51" value="L2 Switch 24-port" style="shape=mxgraph.cisco.switches.layer_2_remote_switch;sketch=0;html=1;pointerEvents=1;dashed=0;fillColor=#036897;strokeColor=#ffffff;strokeWidth=2;verticalLabelPosition=bottom;verticalAlign=top;align=center;outlineConnect=0;direction=east;" parent="BFUSjsGuw__ukXtsEylR-2" vertex="1">
          <mxGeometry x="200" y="504" width="51" height="31" as="geometry" />
        </mxCell>
        <mxCell id="gI3BMYjENLLatV8nJ0et-55" value="" style="endArrow=classic;startArrow=classic;html=1;rounded=0;entryX=1;entryY=0.5;entryDx=0;entryDy=0;entryPerimeter=0;exitX=0.5;exitY=0;exitDx=0;exitDy=0;exitPerimeter=0;" parent="BFUSjsGuw__ukXtsEylR-2" source="gI3BMYjENLLatV8nJ0et-51" target="BFUSjsGuw__ukXtsEylR-27" edge="1">
          <mxGeometry width="50" height="50" relative="1" as="geometry">
            <mxPoint x="226" y="500" as="sourcePoint" />
            <mxPoint x="390" y="360" as="targetPoint" />
            <Array as="points">
              <mxPoint x="226" y="270" />
            </Array>
          </mxGeometry>
        </mxCell>
        <mxCell id="gI3BMYjENLLatV8nJ0et-61" value="" style="endArrow=classic;startArrow=classic;html=1;rounded=0;entryX=1;entryY=0.5;entryDx=0;entryDy=0;entryPerimeter=0;exitX=0;exitY=0;exitDx=0;exitDy=0;exitPerimeter=0;" parent="BFUSjsGuw__ukXtsEylR-2" source="gI3BMYjENLLatV8nJ0et-51" target="wHRlTUKIw1xnclX0nAlL-13" edge="1">
          <mxGeometry width="50" height="50" relative="1" as="geometry">
            <mxPoint x="200" y="499" as="sourcePoint" />
            <mxPoint x="560" y="320" as="targetPoint" />
            <Array as="points">
              <mxPoint x="200" y="381" />
            </Array>
          </mxGeometry>
        </mxCell>
        <mxCell id="gI3BMYjENLLatV8nJ0et-64" value="" style="endArrow=classic;startArrow=classic;html=1;rounded=0;entryX=1;entryY=0.5;entryDx=0;entryDy=0;entryPerimeter=0;exitX=0;exitY=0.5;exitDx=0;exitDy=0;exitPerimeter=0;" parent="BFUSjsGuw__ukXtsEylR-2" source="gI3BMYjENLLatV8nJ0et-51" target="gI3BMYjENLLatV8nJ0et-50" edge="1">
          <mxGeometry width="50" height="50" relative="1" as="geometry">
            <mxPoint x="130" y="660" as="sourcePoint" />
            <mxPoint x="180" y="610" as="targetPoint" />
            <Array as="points" />
          </mxGeometry>
        </mxCell>
        <mxCell id="gI3BMYjENLLatV8nJ0et-65" value="" style="endArrow=classic;startArrow=classic;html=1;rounded=0;" parent="BFUSjsGuw__ukXtsEylR-2" target="wHRlTUKIw1xnclX0nAlL-43" edge="1">
          <mxGeometry width="50" height="50" relative="1" as="geometry">
            <mxPoint x="440" y="540" as="sourcePoint" />
            <mxPoint x="570" y="660" as="targetPoint" />
          </mxGeometry>
        </mxCell>
        <mxCell id="PqYLDP6LCptQQngkSeQw-2" value="L2 Switch 24-port" style="shape=mxgraph.cisco.switches.layer_2_remote_switch;sketch=0;html=1;pointerEvents=1;dashed=0;fillColor=#036897;strokeColor=#ffffff;strokeWidth=2;verticalLabelPosition=bottom;verticalAlign=top;align=center;outlineConnect=0;" parent="BFUSjsGuw__ukXtsEylR-2" vertex="1">
          <mxGeometry x="470" y="470" width="50" height="29" as="geometry" />
        </mxCell>
        <mxCell id="PqYLDP6LCptQQngkSeQw-10" style="edgeStyle=orthogonalEdgeStyle;rounded=0;orthogonalLoop=1;jettySize=auto;html=1;entryX=0;entryY=0.5;entryDx=0;entryDy=0;entryPerimeter=0;startArrow=classic;startFill=1;" parent="BFUSjsGuw__ukXtsEylR-2" source="gI3BMYjENLLatV8nJ0et-14" target="PqYLDP6LCptQQngkSeQw-2" edge="1">
          <mxGeometry relative="1" as="geometry">
            <Array as="points">
              <mxPoint x="135" y="170" />
              <mxPoint x="240" y="170" />
              <mxPoint x="240" y="485" />
            </Array>
          </mxGeometry>
        </mxCell>
        <mxCell id="PqYLDP6LCptQQngkSeQw-12" style="edgeStyle=orthogonalEdgeStyle;rounded=0;orthogonalLoop=1;jettySize=auto;html=1;entryX=0;entryY=0;entryDx=0;entryDy=0;entryPerimeter=0;startArrow=classic;startFill=1;" parent="BFUSjsGuw__ukXtsEylR-2" source="gI3BMYjENLLatV8nJ0et-10" target="PqYLDP6LCptQQngkSeQw-2" edge="1">
          <mxGeometry relative="1" as="geometry">
            <Array as="points">
              <mxPoint x="413" y="240" />
              <mxPoint x="250" y="240" />
              <mxPoint x="250" y="470" />
            </Array>
          </mxGeometry>
        </mxCell>
        <mxCell id="PqYLDP6LCptQQngkSeQw-13" style="edgeStyle=orthogonalEdgeStyle;rounded=0;orthogonalLoop=1;jettySize=auto;html=1;entryX=1;entryY=0.5;entryDx=0;entryDy=0;entryPerimeter=0;startArrow=classic;startFill=1;" parent="BFUSjsGuw__ukXtsEylR-2" source="gI3BMYjENLLatV8nJ0et-11" target="PqYLDP6LCptQQngkSeQw-2" edge="1">
          <mxGeometry relative="1" as="geometry">
            <Array as="points">
              <mxPoint x="820" y="485" />
            </Array>
          </mxGeometry>
        </mxCell>
        <mxCell id="nyUpfFxctSfSs6v7zyH1-37" value="" style="endArrow=classic;startArrow=classic;html=1;rounded=0;entryX=0;entryY=1;entryDx=0;entryDy=0;entryPerimeter=0;" edge="1" parent="BFUSjsGuw__ukXtsEylR-2" source="BFUSjsGuw__ukXtsEylR-12" target="PqYLDP6LCptQQngkSeQw-2">
          <mxGeometry width="50" height="50" relative="1" as="geometry">
            <mxPoint x="410" y="550" as="sourcePoint" />
            <mxPoint x="460" y="500" as="targetPoint" />
          </mxGeometry>
        </mxCell>
        <mxCell id="BFUSjsGuw__ukXtsEylR-28" value="WAN&lt;br&gt;" style="ellipse;shape=cloud;whiteSpace=wrap;html=1;" parent="1" vertex="1">
          <mxGeometry x="260" y="490" width="330" height="140" as="geometry" />
        </mxCell>
        <mxCell id="ctp64JIaLgysh2WZXFKC-14" value="" style="endArrow=classic;startArrow=classic;html=1;rounded=0;exitX=0.094;exitY=0.637;exitDx=0;exitDy=0;exitPerimeter=0;" parent="1" source="BFUSjsGuw__ukXtsEylR-28" target="E-97o8KTaBl7Lajbc1eS-1" edge="1">
          <mxGeometry width="50" height="50" relative="1" as="geometry">
            <mxPoint x="534.02" y="660" as="sourcePoint" />
            <mxPoint x="370" y="670.9890569485333" as="targetPoint" />
          </mxGeometry>
        </mxCell>
        <mxCell id="wHRlTUKIw1xnclX0nAlL-12" value="Доступ для клиентов" style="edgeLabel;html=1;align=center;verticalAlign=middle;resizable=0;points=[];" parent="ctp64JIaLgysh2WZXFKC-14" vertex="1" connectable="0">
          <mxGeometry x="0.062" y="3" relative="1" as="geometry">
            <mxPoint x="2" y="-4" as="offset" />
          </mxGeometry>
        </mxCell>
        <mxCell id="E-97o8KTaBl7Lajbc1eS-1" value="Web-Site &lt;br&gt;on Dedicated Server" style="shape=mxgraph.cisco.servers.www_server;sketch=0;html=1;pointerEvents=1;dashed=0;fillColor=#036897;strokeColor=#ffffff;strokeWidth=2;verticalLabelPosition=bottom;verticalAlign=top;align=center;outlineConnect=0;" parent="1" vertex="1">
          <mxGeometry x="50" y="526.5" width="66" height="67" as="geometry" />
        </mxCell>
        <mxCell id="wHRlTUKIw1xnclX0nAlL-29" value="" style="endArrow=none;dashed=1;html=1;rounded=0;entryX=0.12;entryY=0.94;entryDx=0;entryDy=0;entryPerimeter=0;" parent="1" source="E-97o8KTaBl7Lajbc1eS-1" target="BFUSjsGuw__ukXtsEylR-12" edge="1">
          <mxGeometry width="50" height="50" relative="1" as="geometry">
            <mxPoint x="340" y="630" as="sourcePoint" />
            <mxPoint x="512.2748344370862" y="483" as="targetPoint" />
            <Array as="points" />
          </mxGeometry>
        </mxCell>
        <mxCell id="wHRlTUKIw1xnclX0nAlL-30" value="VPN" style="edgeLabel;html=1;align=center;verticalAlign=middle;resizable=0;points=[];" parent="wHRlTUKIw1xnclX0nAlL-29" vertex="1" connectable="0">
          <mxGeometry x="0.09" y="1" relative="1" as="geometry">
            <mxPoint as="offset" />
          </mxGeometry>
        </mxCell>
        <mxCell id="nyUpfFxctSfSs6v7zyH1-6" value="ЛС Почтового отделения 1" style="swimlane;whiteSpace=wrap;html=1;" vertex="1" parent="1">
          <mxGeometry x="100" y="670" width="240" height="130" as="geometry">
            <mxRectangle x="520" y="770" width="200" height="40" as="alternateBounds" />
          </mxGeometry>
        </mxCell>
        <mxCell id="nyUpfFxctSfSs6v7zyH1-7" value="Оператор 1" style="shape=mxgraph.cisco.computers_and_peripherals.pc;sketch=0;html=1;pointerEvents=1;dashed=0;fillColor=#036897;strokeColor=#ffffff;strokeWidth=2;verticalLabelPosition=bottom;verticalAlign=top;align=center;outlineConnect=0;" vertex="1" parent="nyUpfFxctSfSs6v7zyH1-6">
          <mxGeometry x="30" y="64.37" width="38" height="35.63" as="geometry" />
        </mxCell>
        <mxCell id="nyUpfFxctSfSs6v7zyH1-8" value="IP Camera&lt;br&gt;" style="points=[[0.015,0.015,0],[0.5,0,0],[0.985,0.015,0],[1,0.22,0],[0.985,0.43,0],[0.73,0.85,0],[0.5,1,0],[0.285,0.85,0],[0.015,0.43,0],[0,0.22,0]];verticalLabelPosition=bottom;sketch=0;html=1;verticalAlign=top;aspect=fixed;align=center;pointerEvents=1;shape=mxgraph.cisco19.surveillance_camera;fillColor=#005073;strokeColor=none;" vertex="1" parent="nyUpfFxctSfSs6v7zyH1-6">
          <mxGeometry x="170" y="64.37" width="40" height="31.25" as="geometry" />
        </mxCell>
        <mxCell id="nyUpfFxctSfSs6v7zyH1-9" style="edgeStyle=orthogonalEdgeStyle;rounded=0;orthogonalLoop=1;jettySize=auto;html=1;startArrow=block;startFill=1;" edge="1" parent="nyUpfFxctSfSs6v7zyH1-6" source="nyUpfFxctSfSs6v7zyH1-11" target="nyUpfFxctSfSs6v7zyH1-7">
          <mxGeometry relative="1" as="geometry" />
        </mxCell>
        <mxCell id="nyUpfFxctSfSs6v7zyH1-10" style="edgeStyle=orthogonalEdgeStyle;rounded=0;orthogonalLoop=1;jettySize=auto;html=1;startArrow=block;startFill=1;" edge="1" parent="nyUpfFxctSfSs6v7zyH1-6" source="nyUpfFxctSfSs6v7zyH1-11" target="nyUpfFxctSfSs6v7zyH1-8">
          <mxGeometry relative="1" as="geometry" />
        </mxCell>
        <mxCell id="nyUpfFxctSfSs6v7zyH1-11" value="Router&lt;br&gt;" style="shape=mxgraph.cisco.routers.router;sketch=0;html=1;pointerEvents=1;dashed=0;fillColor=#036897;strokeColor=#ffffff;strokeWidth=2;verticalLabelPosition=bottom;verticalAlign=top;align=center;outlineConnect=0;" vertex="1" parent="nyUpfFxctSfSs6v7zyH1-6">
          <mxGeometry x="98" y="30" width="34" height="30" as="geometry" />
        </mxCell>
        <mxCell id="nyUpfFxctSfSs6v7zyH1-14" value="" style="endArrow=classic;startArrow=classic;html=1;rounded=0;entryX=0.5;entryY=1;entryDx=0;entryDy=0;entryPerimeter=0;exitX=0.466;exitY=0.111;exitDx=0;exitDy=0;exitPerimeter=0;" edge="1" parent="1" source="BFUSjsGuw__ukXtsEylR-28" target="BFUSjsGuw__ukXtsEylR-12">
          <mxGeometry width="50" height="50" relative="1" as="geometry">
            <mxPoint x="460" y="560" as="sourcePoint" />
            <mxPoint x="510" y="510" as="targetPoint" />
          </mxGeometry>
        </mxCell>
        <mxCell id="nyUpfFxctSfSs6v7zyH1-17" value="" style="endArrow=none;dashed=1;html=1;rounded=0;exitX=0.464;exitY=0.009;exitDx=0;exitDy=0;exitPerimeter=0;" edge="1" parent="1" source="nyUpfFxctSfSs6v7zyH1-6" target="BFUSjsGuw__ukXtsEylR-12">
          <mxGeometry width="50" height="50" relative="1" as="geometry">
            <mxPoint x="591" y="680" as="sourcePoint" />
            <mxPoint x="437" y="456" as="targetPoint" />
            <Array as="points" />
          </mxGeometry>
        </mxCell>
        <mxCell id="nyUpfFxctSfSs6v7zyH1-18" value="VPN" style="edgeLabel;html=1;align=center;verticalAlign=middle;resizable=0;points=[];" vertex="1" connectable="0" parent="nyUpfFxctSfSs6v7zyH1-17">
          <mxGeometry x="0.09" y="1" relative="1" as="geometry">
            <mxPoint as="offset" />
          </mxGeometry>
        </mxCell>
        <mxCell id="nyUpfFxctSfSs6v7zyH1-20" value="ЛС Почтового отделения 2" style="swimlane;whiteSpace=wrap;html=1;" vertex="1" parent="1">
          <mxGeometry x="350" y="670" width="240" height="130" as="geometry">
            <mxRectangle x="520" y="770" width="200" height="40" as="alternateBounds" />
          </mxGeometry>
        </mxCell>
        <mxCell id="nyUpfFxctSfSs6v7zyH1-21" value="Оператор 2" style="shape=mxgraph.cisco.computers_and_peripherals.pc;sketch=0;html=1;pointerEvents=1;dashed=0;fillColor=#036897;strokeColor=#ffffff;strokeWidth=2;verticalLabelPosition=bottom;verticalAlign=top;align=center;outlineConnect=0;" vertex="1" parent="nyUpfFxctSfSs6v7zyH1-20">
          <mxGeometry x="30" y="64.37" width="38" height="35.63" as="geometry" />
        </mxCell>
        <mxCell id="nyUpfFxctSfSs6v7zyH1-22" value="IP Camera&lt;br&gt;" style="points=[[0.015,0.015,0],[0.5,0,0],[0.985,0.015,0],[1,0.22,0],[0.985,0.43,0],[0.73,0.85,0],[0.5,1,0],[0.285,0.85,0],[0.015,0.43,0],[0,0.22,0]];verticalLabelPosition=bottom;sketch=0;html=1;verticalAlign=top;aspect=fixed;align=center;pointerEvents=1;shape=mxgraph.cisco19.surveillance_camera;fillColor=#005073;strokeColor=none;" vertex="1" parent="nyUpfFxctSfSs6v7zyH1-20">
          <mxGeometry x="170" y="64.37" width="40" height="31.25" as="geometry" />
        </mxCell>
        <mxCell id="nyUpfFxctSfSs6v7zyH1-23" style="edgeStyle=orthogonalEdgeStyle;rounded=0;orthogonalLoop=1;jettySize=auto;html=1;startArrow=block;startFill=1;" edge="1" parent="nyUpfFxctSfSs6v7zyH1-20" source="nyUpfFxctSfSs6v7zyH1-25" target="nyUpfFxctSfSs6v7zyH1-21">
          <mxGeometry relative="1" as="geometry" />
        </mxCell>
        <mxCell id="nyUpfFxctSfSs6v7zyH1-24" style="edgeStyle=orthogonalEdgeStyle;rounded=0;orthogonalLoop=1;jettySize=auto;html=1;startArrow=block;startFill=1;" edge="1" parent="nyUpfFxctSfSs6v7zyH1-20" source="nyUpfFxctSfSs6v7zyH1-25" target="nyUpfFxctSfSs6v7zyH1-22">
          <mxGeometry relative="1" as="geometry" />
        </mxCell>
        <mxCell id="nyUpfFxctSfSs6v7zyH1-25" value="Router&lt;br&gt;" style="shape=mxgraph.cisco.routers.router;sketch=0;html=1;pointerEvents=1;dashed=0;fillColor=#036897;strokeColor=#ffffff;strokeWidth=2;verticalLabelPosition=bottom;verticalAlign=top;align=center;outlineConnect=0;" vertex="1" parent="nyUpfFxctSfSs6v7zyH1-20">
          <mxGeometry x="98" y="30" width="34" height="30" as="geometry" />
        </mxCell>
        <mxCell id="nyUpfFxctSfSs6v7zyH1-26" value="..." style="text;strokeColor=none;fillColor=none;html=1;fontSize=24;fontStyle=1;verticalAlign=middle;align=center;" vertex="1" parent="1">
          <mxGeometry x="600" y="710" width="100" height="40" as="geometry" />
        </mxCell>
        <mxCell id="nyUpfFxctSfSs6v7zyH1-27" value="ЛС Почтового отделения N" style="swimlane;whiteSpace=wrap;html=1;" vertex="1" parent="1">
          <mxGeometry x="710" y="670" width="240" height="130" as="geometry">
            <mxRectangle x="520" y="770" width="200" height="40" as="alternateBounds" />
          </mxGeometry>
        </mxCell>
        <mxCell id="nyUpfFxctSfSs6v7zyH1-28" value="Оператор N" style="shape=mxgraph.cisco.computers_and_peripherals.pc;sketch=0;html=1;pointerEvents=1;dashed=0;fillColor=#036897;strokeColor=#ffffff;strokeWidth=2;verticalLabelPosition=bottom;verticalAlign=top;align=center;outlineConnect=0;" vertex="1" parent="nyUpfFxctSfSs6v7zyH1-27">
          <mxGeometry x="30" y="64.37" width="38" height="35.63" as="geometry" />
        </mxCell>
        <mxCell id="nyUpfFxctSfSs6v7zyH1-29" value="IP Camera&lt;br&gt;" style="points=[[0.015,0.015,0],[0.5,0,0],[0.985,0.015,0],[1,0.22,0],[0.985,0.43,0],[0.73,0.85,0],[0.5,1,0],[0.285,0.85,0],[0.015,0.43,0],[0,0.22,0]];verticalLabelPosition=bottom;sketch=0;html=1;verticalAlign=top;aspect=fixed;align=center;pointerEvents=1;shape=mxgraph.cisco19.surveillance_camera;fillColor=#005073;strokeColor=none;" vertex="1" parent="nyUpfFxctSfSs6v7zyH1-27">
          <mxGeometry x="170" y="64.37" width="40" height="31.25" as="geometry" />
        </mxCell>
        <mxCell id="nyUpfFxctSfSs6v7zyH1-30" style="edgeStyle=orthogonalEdgeStyle;rounded=0;orthogonalLoop=1;jettySize=auto;html=1;startArrow=block;startFill=1;" edge="1" parent="nyUpfFxctSfSs6v7zyH1-27" source="nyUpfFxctSfSs6v7zyH1-32" target="nyUpfFxctSfSs6v7zyH1-28">
          <mxGeometry relative="1" as="geometry" />
        </mxCell>
        <mxCell id="nyUpfFxctSfSs6v7zyH1-31" style="edgeStyle=orthogonalEdgeStyle;rounded=0;orthogonalLoop=1;jettySize=auto;html=1;startArrow=block;startFill=1;" edge="1" parent="nyUpfFxctSfSs6v7zyH1-27" source="nyUpfFxctSfSs6v7zyH1-32" target="nyUpfFxctSfSs6v7zyH1-29">
          <mxGeometry relative="1" as="geometry" />
        </mxCell>
        <mxCell id="nyUpfFxctSfSs6v7zyH1-32" value="Router&lt;br&gt;" style="shape=mxgraph.cisco.routers.router;sketch=0;html=1;pointerEvents=1;dashed=0;fillColor=#036897;strokeColor=#ffffff;strokeWidth=2;verticalLabelPosition=bottom;verticalAlign=top;align=center;outlineConnect=0;" vertex="1" parent="nyUpfFxctSfSs6v7zyH1-27">
          <mxGeometry x="98" y="30" width="34" height="30" as="geometry" />
        </mxCell>
        <mxCell id="nyUpfFxctSfSs6v7zyH1-33" value="" style="endArrow=none;dashed=1;html=1;rounded=0;exitX=0.521;exitY=0.006;exitDx=0;exitDy=0;exitPerimeter=0;entryX=0.88;entryY=0.94;entryDx=0;entryDy=0;entryPerimeter=0;" edge="1" parent="1" source="nyUpfFxctSfSs6v7zyH1-20" target="BFUSjsGuw__ukXtsEylR-12">
          <mxGeometry width="50" height="50" relative="1" as="geometry">
            <mxPoint x="221" y="681" as="sourcePoint" />
            <mxPoint x="393" y="460" as="targetPoint" />
            <Array as="points" />
          </mxGeometry>
        </mxCell>
        <mxCell id="nyUpfFxctSfSs6v7zyH1-34" value="VPN" style="edgeLabel;html=1;align=center;verticalAlign=middle;resizable=0;points=[];" vertex="1" connectable="0" parent="nyUpfFxctSfSs6v7zyH1-33">
          <mxGeometry x="0.09" y="1" relative="1" as="geometry">
            <mxPoint as="offset" />
          </mxGeometry>
        </mxCell>
        <mxCell id="nyUpfFxctSfSs6v7zyH1-35" value="" style="endArrow=none;dashed=1;html=1;rounded=0;exitX=0.5;exitY=0;exitDx=0;exitDy=0;" edge="1" parent="1" source="nyUpfFxctSfSs6v7zyH1-27" target="BFUSjsGuw__ukXtsEylR-12">
          <mxGeometry width="50" height="50" relative="1" as="geometry">
            <mxPoint x="485" y="681" as="sourcePoint" />
            <mxPoint x="437" y="456" as="targetPoint" />
            <Array as="points" />
          </mxGeometry>
        </mxCell>
        <mxCell id="nyUpfFxctSfSs6v7zyH1-36" value="VPN" style="edgeLabel;html=1;align=center;verticalAlign=middle;resizable=0;points=[];" vertex="1" connectable="0" parent="nyUpfFxctSfSs6v7zyH1-35">
          <mxGeometry x="0.09" y="1" relative="1" as="geometry">
            <mxPoint as="offset" />
          </mxGeometry>
        </mxCell>
      </root>
    </mxGraphModel>
  </diagram>
</mxfile>
